<svg viewBox="0 0 96 96" xml:space="preserve" xmlns="http://www.w3.org/2000/svg"><rect x="2" y="2" width="92" height="92" rx="21.808" ry="21.808" fill="#131517" stroke="#6a6d71" stroke-linecap="round" stroke-linejoin="round" stroke-width="4"/><path d="M60.142 47.991a78.148 78.148 0 0 1-9.185 36.753 4.179 4.179 0 1 1-7.369-3.943 69.768 69.768 0 0 0 8.196-32.81 2.786 2.786 0 1 0-5.572 0 4.179 4.179 0 0 1-8.357 0 11.143 11.143 0 1 1 22.287 0zM48.998 22.918a4.179 4.179 0 0 0 0 8.358 16.734 16.734 0 0 1 16.715 16.715c0 2.656-.125 5.336-.374 7.965a4.18 4.18 0 0 0 3.768 4.553q.2.02.397.02a4.18 4.18 0 0 0 4.156-3.787 93.5 93.5 0 0 0 .411-8.75 25.101 25.101 0 0 0-25.073-25.074zM37.855 35.532a4.179 4.179 0 1 0-5.574-6.227 25.11 25.11 0 0 0-8.356 18.686 41.808 41.808 0 0 1-5.266 20.326 4.179 4.179 0 1 0 7.298 4.072 50.183 50.183 0 0 0 6.326-24.398 16.742 16.742 0 0 1 5.572-12.459zm3.518 22.324a4.18 4.18 0 0 0-5.033 3.097 55.297 55.297 0 0 1-6.576 15.971 4.179 4.179 0 1 0 7.139 4.346 63.65 63.65 0 0 0 7.567-18.38 4.18 4.18 0 0 0-3.097-5.033zm26.722 8.38a4.176 4.176 0 0 0-5.1 2.984 83.225 83.225 0 0 1-2.783 8.659 4.179 4.179 0 1 0 7.805 2.99 91.588 91.588 0 0 0 3.063-9.532 4.179 4.179 0 0 0-2.985-5.101zM49.002 8.989A39.047 39.047 0 0 0 10 47.794a4.78 4.78 0 0 0-.004.197 27.766 27.766 0 0 1-1.73 9.69 4.179 4.179 0 1 0 7.836 2.907 36.087 36.087 0 0 0 2.25-12.399c.004-.065.006-.131.006-.198a30.645 30.645 0 0 1 61.289-.174 4.222 4.222 0 0 0-.004.174 98.078 98.078 0 0 1-2.35 21.376 4.179 4.179 0 1 0 8.157 1.824A106.446 106.446 0 0 0 88 48.18a3.87 3.87 0 0 0 .005-.19 39.047 39.047 0 0 0-39.003-39z" fill="#212426" stroke="#a5a7ac" stroke-width="10.6" style="paint-order:markers stroke fill"/></svg>